<?xml version="1.0" standalone="no"?>
<!DOCTYPE svg PUBLIC "-//W3C//DTD SVG 20010904//EN"
 "http://www.w3.org/TR/2001/REC-SVG-20010904/DTD/svg10.dtd">
<svg version="1.0" xmlns="http://www.w3.org/2000/svg"
 width="200.000000pt" height="200.000000pt" viewBox="0 0 200.000000 200.000000"
 preserveAspectRatio="xMidYMid meet">

<g transform="translate(0.000000,200.000000) scale(0.100000,-0.100000)"
fill="#000000" stroke="none">
<path d="M987 1710 c-16 -22 -16 -25 -1 -28 21 -5 26 2 22 30 l-3 23 -18 -25z"/>
<path d="M940 1621 c-15 -29 -13 -31 30 -31 36 0 40 3 40 25 0 21 -5 25 -30
25 -19 0 -33 -7 -40 -19z"/>
<path d="M890 1531 c-5 -11 -10 -22 -10 -25 0 -3 29 -6 65 -6 63 0 65 1 65 25
0 24 -3 25 -55 25 -43 0 -56 -4 -65 -19z"/>
<path d="M842 1435 l-12 -25 90 0 c89 0 90 0 90 25 0 25 -1 25 -78 25 -74 0
-79 -1 -90 -25z"/>
<path d="M802 1355 l-12 -25 110 0 c101 0 110 2 110 19 0 15 -11 19 -61 25
-114 11 -135 9 -147 -19z"/>
<path d="M765 1280 c-4 -12 -5 -23 -3 -25 1 -1 58 -6 126 -10 118 -7 122 -6
122 14 0 11 -3 22 -7 24 -5 3 -58 8 -119 12 -109 7 -112 7 -119 -15z"/>
<path d="M724 1206 c-7 -11 -13 -21 -11 -22 2 -2 269 -34 287 -34 5 0 10 11
10 25 0 19 -5 25 -22 25 -13 1 -74 7 -136 13 -110 13 -114 12 -128 -7z"/>
<path d="M680 1120 c-13 -24 -8 -25 145 -40 61 -6 127 -13 148 -16 35 -5 37
-4 37 20 0 14 -6 26 -12 26 -7 0 -69 7 -138 15 -160 19 -167 19 -180 -5z"/>
<path d="M640 1039 c-7 -11 -10 -22 -8 -24 2 -1 75 -10 163 -19 88 -9 172 -19
188 -22 24 -5 27 -3 27 20 0 22 -5 25 -42 31 -49 6 -299 35 -310 35 -4 0 -12
-9 -18 -21z"/>
<path d="M593 955 c-3 -9 -3 -18 0 -21 6 -6 335 -43 385 -44 25 0 32 4 32 20
0 22 -3 23 -202 45 -175 19 -207 19 -215 0z"/>
<path d="M160 777 c-55 -36 -75 -81 -75 -164 0 -65 3 -75 27 -99 56 -56 189
-36 231 35 23 39 22 41 -13 41 -18 0 -39 -10 -54 -25 -17 -17 -36 -25 -59 -25
-48 0 -67 25 -67 88 0 42 5 57 28 82 15 16 41 33 58 36 27 5 38 1 65 -25 42
-41 75 -39 71 4 -1 17 -14 40 -28 53 -36 32 -137 32 -184 -1z"/>
<path d="M490 793 c-85 -32 -135 -156 -100 -247 23 -60 117 -83 196 -47 112
51 141 236 45 285 -29 15 -110 20 -141 9z m116 -70 c19 -26 17 -92 -5 -133
-34 -65 -126 -71 -151 -10 -20 49 10 136 54 159 29 15 85 6 102 -16z"/>
<path d="M730 786 c-10 -13 -49 -238 -50 -288 0 -13 8 -18 29 -18 32 0 35 5
46 83 6 47 6 47 45 47 65 0 70 -5 70 -71 0 -58 0 -59 29 -59 24 0 29 5 35 31
9 49 7 107 -5 114 -7 5 -3 15 10 29 42 45 40 114 -4 134 -38 18 -190 16 -205
-2z m168 -72 c5 -35 -24 -54 -79 -54 -52 0 -57 6 -43 58 6 21 11 23 63 20 48
-3 56 -6 59 -24z"/>
<path d="M1011 791 c-14 -9 -49 -205 -50 -278 -1 -28 2 -33 23 -33 14 0 27 4
30 8 2 4 10 48 16 98 16 118 26 133 34 48 15 -152 15 -154 46 -154 35 0 38 5
85 120 21 52 41 98 45 103 3 4 -1 -42 -10 -103 -9 -61 -14 -113 -11 -115 10
-10 52 -4 56 8 4 12 45 281 45 298 0 5 -22 9 -48 9 l-49 0 -44 -110 c-24 -60
-47 -110 -50 -110 -4 0 -9 28 -13 63 -18 168 -14 157 -55 157 -20 0 -42 -4
-50 -9z"/>
<path d="M1372 648 c-44 -84 -78 -156 -76 -160 3 -5 18 -8 33 -8 21 0 31 8 44
35 l17 36 63 -3 c60 -3 62 -4 67 -33 4 -25 10 -30 38 -33 21 -2 32 1 32 10 0
7 -14 79 -31 161 l-32 147 -38 0 -37 0 -80 -152z m122 0 l7 -48 -41 0 c-23 0
-40 4 -38 8 51 127 59 131 72 40z"/>
<path d="M1663 788 c-6 -7 -18 -65 -27 -128 -10 -63 -20 -130 -23 -148 -5 -33
-5 -33 28 -30 l34 3 14 98 c8 53 17 97 20 97 3 0 27 -45 53 -101 47 -99 47
-100 80 -97 l32 3 22 145 c13 80 23 151 23 158 1 7 -12 12 -32 12 l-34 0 -13
-100 c-7 -55 -16 -100 -19 -100 -4 0 -26 45 -50 100 -40 92 -46 100 -71 100
-15 0 -32 -6 -37 -12z"/>
</g>
</svg>
